<?xml version="1.0" encoding="utf-8"?>
<!-- Generator: Adobe Illustrator 22.1.0, SVG Export Plug-In . SVG Version: 6.00 Build 0)  -->
<svg version="1.1" id="Layer_1" xmlns="http://www.w3.org/2000/svg" xmlns:xlink="http://www.w3.org/1999/xlink" x="0px" y="0px"
	 viewBox="0 0 1366 768" style="enable-background:new 0 0 1366 768;" xml:space="preserve">
<style type="text/css">
	.st0{fill:#C69C6D;}
</style>
<g>
	<polygon class="st0" points="623.6,602.5 684.1,578.1 743.4,602 683,633.4 	"/>
	<path d="M684.1,578.6l58.1,23.4L683,632.9l-58.2-30.3L684.1,578.6 M684.1,577.5l-61.6,24.9L683,634l61.6-32.1L684.1,577.5
		L684.1,577.5z"/>
</g>
<g>
	<polygon class="st0" points="683.7,536.4 744.5,517.8 744.5,604.2 683.7,635.2 	"/>
	<path d="M744,518.4v85.4l-59.8,30.5v-97.6L744,518.4 M745,517.1L683.2,536v100l61.8-31.5V517.1L745,517.1z"/>
</g>
<g>
	<polygon class="st0" points="621.3,601.6 621.3,517.7 682.2,536 682.2,632.2 	"/>
	<path d="M621.8,518.3l59.9,18v95l-59.9-30V518.3 M620.8,517v85l61.9,31v-97.4L620.8,517L620.8,517z"/>
</g>
<g>
	<polygon class="st0" points="622.7,518.4 681,501.5 743.3,518.1 685.5,538.5 	"/>
	<path d="M681,502l60.6,16.2l-56.1,19.8l-61.1-19.5L681,502 M681,501l-60,17.5l64.5,20.6l59.5-21L681,501L681,501z"/>
</g>
</svg>
