<svg id="Layer_1" data-name="Layer 1" xmlns="http://www.w3.org/2000/svg" viewBox="0 0 459.86 436.55"><defs><style>.cls-1,.cls-2,.cls-3{fill:#b3b3b3;}.cls-2{stroke:#999;}.cls-2,.cls-3,.cls-5{stroke-miterlimit:10;}.cls-3,.cls-5{stroke:#b3b3b3;}.cls-4{fill:#c1272d;}.cls-5{fill:none;}</style></defs><title>serial-killers-title</title><path class="cls-1" d="M357.36,280.39c-.56-1.24-1.07-2.5-1.54-3.78a38.34,38.34,0,0,1-1.29-3.88c-.36-1.31-.63-2.63-.94-4a31.52,31.52,0,0,1-.71-4,60.72,60.72,0,0,1-.68-8.19c0-1.37,0-2.76,0-4.14s.18-2.75.29-4.13a86.69,86.69,0,0,1,9.42-31.81A103,103,0,0,1,381.7,190a145.41,145.41,0,0,1,25.63-20.15,162.52,162.52,0,0,1,90.42-24.19,136.94,136.94,0,0,1,30.43,4.23v1c-9.85,2.7-19.38,5.26-28.64,8.21s-18.25,6.15-27,9.74a235.74,235.74,0,0,0-48.1,26.61,173.34,173.34,0,0,0-20.22,17.22A238,238,0,0,0,387,232.17a211.19,211.19,0,0,0-15,22l-.9,1.48c-.29.5-.63,1-.88,1.5-.54,1-1.12,2-1.69,3.08-1.25,2-2.18,4.2-3.39,6.36s-2.11,4.43-3.31,6.72-2.12,4.68-3.42,7.13Z" transform="translate(-296.32 -144)"/><path class="cls-1" d="M528.33,149.73A119.1,119.1,0,0,1,558.76,145a144.17,144.17,0,0,1,31.15,2.44,148.52,148.52,0,0,1,58.54,24.83,135.4,135.4,0,0,1,24.19,21.92,109.26,109.26,0,0,1,17.44,27.89,94.15,94.15,0,0,1,7.58,31.82l.13,2v2c0,1.35,0,2.71-.07,4.05-.06,2.69-.5,5.4-.79,8a17.45,17.45,0,0,1-.34,2l-.41,2c-.26,1.31-.6,2.61-.91,3.9a68.54,68.54,0,0,1-2.66,7.57h-1c-1.21-2.44-2.17-4.81-3.16-7.13s-2-4.58-3.11-6.78c-2.12-4.42-4.22-8.64-6.46-12.69a202.59,202.59,0,0,0-14.44-22.58,215.28,215.28,0,0,0-16.63-19.94,182.56,182.56,0,0,0-19.12-17.79,223,223,0,0,0-46-28.07q-12.59-5.82-26.17-10.62c-9-3.27-18.43-6.08-28.21-9.14Z" transform="translate(-296.32 -144)"/><path class="cls-1" d="M692.42,325.65a66,66,0,0,1,5.28,8.93,85.3,85.3,0,0,1,3.69,9.28,48.74,48.74,0,0,1,1.35,4.74c.41,1.59.75,3.18,1.1,4.78.16.8.33,1.61.47,2.41s.22,1.61.33,2.41c.22,1.61.37,3.22.54,4.84a100,100,0,0,1-4.46,38.31c-.49,1.55-.94,3.1-1.53,4.61s-1.18,3-1.8,4.51-1.23,3-1.93,4.45l-2.1,4.38c-.72,1.45-1.39,2.93-2.15,4.35l-2.35,4.26c-.8,1.41-1.54,2.84-2.38,4.23l-2.56,4.13a176.26,176.26,0,0,1-24.13,30.35c-18.2,18.35-40.66,32.46-64.87,40.07s-50,8.91-73.22,2.22v-1a259.19,259.19,0,0,0,32.53-11.72,199,199,0,0,0,28.63-15.64,195.81,195.81,0,0,0,45.69-42,200.11,200.11,0,0,0,17-25.33c.61-1.11,1.25-2.21,1.88-3.31s1.17-2.26,1.76-3.38l1.74-3.39c.59-1.12,1.09-2.29,1.64-3.44l1.62-3.44c.55-1.15,1-2.35,1.5-3.51s1-2.33,1.56-3.48,1-2.35,1.53-3.51c4.16-9.32,8.63-18.66,13.74-28.49,2.59-4.9,5.28-9.94,8.35-15.17,1.45-2.62,3.13-5.28,4.85-8a90.48,90.48,0,0,1,5.69-8.41Z" transform="translate(-296.32 -144)"/><path class="cls-1" d="M521.54,509.08a101.74,101.74,0,0,1-36.71,4.44,128.18,128.18,0,0,1-37.27-7.82,146.3,146.3,0,0,1-34.16-18.15,163.27,163.27,0,0,1-28.69-26.2,177,177,0,0,1-21.94-31.94,137.33,137.33,0,0,1-13.4-36,126.49,126.49,0,0,1-2.48-38c.31-3.17.64-6.32,1.26-9.46.3-1.57.59-3.13.93-4.68.17-.78.33-1.56.51-2.33l.64-2.32c.44-1.54.9-3.08,1.41-4.6s.93-3,1.59-4.54a81.85,81.85,0,0,1,4.13-8.88h1c1.72,2.89,3.19,5.72,4.51,8.51s2.8,5.51,4.05,8.21l.92,2,1,2c.66,1.32,1.26,2.64,1.88,3.95,1.14,2.64,2.48,5.21,3.63,7.77,4.78,10.23,9.32,20,13.91,29.48s9.16,18.73,14,27.81a226.41,226.41,0,0,0,16.25,26.08,199.51,199.51,0,0,0,43.31,44,186,186,0,0,0,27.6,16.84,238.47,238.47,0,0,0,32.16,12.91Z" transform="translate(-296.32 -144)"/><ellipse class="cls-2" cx="180.45" cy="174.33" rx="23.56" ry="24.83"/><ellipse class="cls-3" cx="188.79" cy="296.2" rx="10.15" ry="10.7"/><ellipse class="cls-3" cx="146.74" cy="250.35" rx="10.15" ry="10.7"/><ellipse class="cls-3" cx="189.51" cy="250.35" rx="10.15" ry="10.7"/><ellipse class="cls-3" cx="316.39" cy="251.88" rx="10.15" ry="10.7"/><ellipse class="cls-3" cx="272.89" cy="296.2" rx="10.15" ry="10.7"/><ellipse class="cls-3" cx="272.89" cy="251.12" rx="10.15" ry="10.7"/><ellipse class="cls-3" cx="272.53" cy="174.33" rx="23.56" ry="24.83"/><ellipse class="cls-3" cx="170.66" cy="60.86" rx="10.15" ry="10.7"/><ellipse class="cls-3" cx="283.04" cy="60.86" rx="10.15" ry="10.7"/><rect class="cls-3" x="211.99" y="0.5" width="26.1" height="27.51" rx="12" ry="12"/><path class="cls-1" d="M299.5,342.45c0-13.12,26.1-23.74,58.36-23.74" transform="translate(-296.32 -144)"/><path class="cls-1" d="M299,342.45a9.55,9.55,0,0,1-1.39-5.26,16.39,16.39,0,0,1,.33-2.86,19.75,19.75,0,0,1,.84-2.71c.35-.9.76-1.7,1.19-2.55s.94-1.6,1.46-2.31a30.21,30.21,0,0,1,3.44-4.06,44.87,44.87,0,0,1,16.71-10.19,57.13,57.13,0,0,1,9-2.39,34,34,0,0,1,9.23-.28,31.45,31.45,0,0,1,9.2,2.4,30.59,30.59,0,0,1,4.48,2.42,24.3,24.3,0,0,1,4.33,3.55v1a42.75,42.75,0,0,1-8,6.46,47.3,47.3,0,0,1-7.58,3.92,46.17,46.17,0,0,1-7.41,2.32c-2.47.54-4.92,1-7.35,1.5-4.86.94-9.65,1.77-14.28,2.76a55.64,55.64,0,0,0-6.79,1.82,15.14,15.14,0,0,0-3.29,1.55,11.26,11.26,0,0,0-3.14,2.91Z" transform="translate(-296.32 -144)"/><path class="cls-1" d="M365.11,371.55a40.17,40.17,0,0,1-9.87,4.81A53.58,53.58,0,0,1,345,378.75a58.45,58.45,0,0,1-21-1.09,51,51,0,0,1-10.34-3.54,35.57,35.57,0,0,1-9.52-6.65,27,27,0,0,1-6.9-10.84,17.07,17.07,0,0,1-.84-6.9,10.51,10.51,0,0,1,2.61-6.28h1a15.06,15.06,0,0,0,4.5,3c.67.31,1.41.53,2,.75s1.3.36,2,.51c2.52.6,4.95,1,7.38,1.67s4.88,1.32,7.36,2.19,5,1.87,7.62,2.83c5.22,2,10.69,4.06,16.36,6.57,2.84,1.27,5.74,2.59,8.71,4.16a78.57,78.57,0,0,1,9.18,5.4Z" transform="translate(-296.32 -144)"/><line class="cls-4" x1="173.56" y1="89.9" x2="224.31" y2="141.85"/><path class="cls-4" d="M470.24,233.55a36.29,36.29,0,0,1,10.11,2.81,46.88,46.88,0,0,1,8.27,4.62c5.09,3.48,9.16,8,13.16,12.52a118.37,118.37,0,0,1,10.92,14.72c1.64,2.63,3.18,5.35,4.59,8.2a59.44,59.44,0,0,1,3.7,9.08l-.72.7a60.46,60.46,0,0,1-9-3.9c-2.82-1.48-5.5-3.09-8.1-4.79a119.36,119.36,0,0,1-14.45-11.26c-4.45-4.11-8.85-8.28-12.21-13.45a46.86,46.86,0,0,1-4.43-8.37,36.67,36.67,0,0,1-2.57-10.18Z" transform="translate(-296.32 -144)"/><line class="cls-4" x1="224.31" y1="141.85" x2="273.61" y2="88.37"/><path class="cls-4" d="M520.26,285.52a56.16,56.16,0,0,1,3.35-9.28,89.31,89.31,0,0,1,4.33-8.38,112,112,0,0,1,10.59-15c2-2.32,4-4.6,6.1-6.74a59.6,59.6,0,0,1,7-5.94,50.77,50.77,0,0,1,8.14-4.86,38.1,38.1,0,0,1,9.81-3.32l.74.68a38.14,38.14,0,0,1-2.51,10,52.15,52.15,0,0,1-4.18,8.51,58.75,58.75,0,0,1-5.36,7.43c-2,2.32-4.07,4.49-6.22,6.63A111.09,111.09,0,0,1,538,277.1a87,87,0,0,1-8,5,56.22,56.22,0,0,1-9,4.09Z" transform="translate(-296.32 -144)"/><path class="cls-1" d="M549.12,527.6a23.37,23.37,0,0,1,5.61-9.57,34.2,34.2,0,0,1,9.54-6.85c.89-.42,1.79-.82,2.71-1.21s1.82-.69,2.76-1a48.84,48.84,0,0,1,5.66-1.54c1-.22,1.88-.36,2.84-.51s1.92-.33,2.85-.41c1.88-.16,3.82-.38,5.68-.38a86.3,86.3,0,0,1,21.87,2.36,112.72,112.72,0,0,1,20.06,6.79,134,134,0,0,1,18.19,9.82c2.85,1.87,5.69,3.77,8.38,5.83,1.35,1,2.66,2.11,3.9,3.26s2.48,2.32,3.62,3.58A57.75,57.75,0,0,1,674,555.26c.67,1.68,1.27,3.43,1.81,5.2s.92,3.7,1.32,5.58a47.64,47.64,0,0,1,.66,12.62l-.72.68c-1.22.09-2.29,0-3.39,0s-2.14-.07-3.18-.12l-3-.25-2.86-.34a87.7,87.7,0,0,1-10.34-2.11,76.31,76.31,0,0,1-17.08-6.83,78.31,78.31,0,0,1-7.26-4.52l-6.83-5q-6.83-4.89-13.63-9.58a260.18,260.18,0,0,0-27.59-16.92c-2.36-1.22-4.72-2.27-7.15-3.3-1.18-.43-2.45-1-3.66-1.35-.61-.18-1.26-.46-1.88-.61s-1.25-.33-1.9-.52-1.27-.26-1.94-.43l-1-.2c-.34-.07-.65-.09-1-.15-.67-.08-1.38-.2-2.07-.25s-1.38,0-2.12-.08a33,33,0,0,0-9.33,1.42Z" transform="translate(-296.32 -144)"/><path class="cls-1" d="M506.65,528.29a32.2,32.2,0,0,0-9-2,34,34,0,0,0-8.22.63c-.67.15-1.32.3-2,.42s-1.3.37-1.93.53c-1.26.3-2.55.83-3.78,1.21-.62.21-1.26.5-1.87.73s-1.22.43-1.85.74c-1.23.57-2.44,1-3.66,1.65-9.68,4.65-18.94,10.7-28,17.13-4.54,3.24-9,6.59-13.51,10-2.2,1.78-4.47,3.44-6.65,5.26s-4.41,3.59-6.64,5.34a61.12,61.12,0,0,1-6.8,5.24,36.41,36.41,0,0,1-3.93,2,38.35,38.35,0,0,1-4.42,1.59,39.4,39.4,0,0,1-5,1.1,44,44,0,0,1-5.66.54,55.58,55.58,0,0,1-14.23-1.16l-.72-.68-.28-1.07-.2-1c-.12-.66-.29-1.36-.37-2s-.19-1.28-.25-1.88l-.16-1.83a38.59,38.59,0,0,1,.11-6.67A36.06,36.06,0,0,1,380.4,553,33.43,33.43,0,0,1,386,544.2a34.26,34.26,0,0,1,3.6-3.53l3.94-3.16a154.14,154.14,0,0,1,35-20.92A121,121,0,0,1,448.45,510a89.77,89.77,0,0,1,21.54-2.4,65,65,0,0,1,11.14,1.13,51.63,51.63,0,0,1,5.54,1.4c.91.3,1.8.56,2.7.92s1.79.74,2.66,1.12a28.38,28.38,0,0,1,2.57,1.32,25.15,25.15,0,0,1,2.45,1.5c.79.55,1.57,1.06,2.31,1.65s1.43,1.27,2.12,1.9a24,24,0,0,1,5.89,9Z" transform="translate(-296.32 -144)"/><line class="cls-3" x1="253.31" y1="363.05" x2="253.31" y2="385.59"/><line class="cls-5" x1="211.99" y1="363.05" x2="211.99" y2="385.59"/><path class="cls-1" d="M753,349.33c0-13.13-26.1-23.74-58.36-23.74" transform="translate(-296.32 -144)"/><path class="cls-1" d="M752.5,349.33a11.31,11.31,0,0,0-3.14-2.92,15.1,15.1,0,0,0-3.29-1.54,55.64,55.64,0,0,0-6.79-1.82c-4.63-1-9.42-1.83-14.28-2.77-2.43-.47-4.88-.95-7.35-1.49a45.23,45.23,0,0,1-7.41-2.33,46.41,46.41,0,0,1-7.58-3.91,43.15,43.15,0,0,1-8-6.46v-1a24,24,0,0,1,4.33-3.56,30.51,30.51,0,0,1,4.48-2.41,31.79,31.79,0,0,1,9.2-2.41,34.37,34.37,0,0,1,9.23.28,57.17,57.17,0,0,1,9,2.4,44.74,44.74,0,0,1,16.71,10.19,30.11,30.11,0,0,1,3.44,4.05c.52.72,1,1.55,1.46,2.32s.84,1.65,1.19,2.55a19.75,19.75,0,0,1,.84,2.71,16.28,16.28,0,0,1,.33,2.85,9.56,9.56,0,0,1-1.39,5.27Z" transform="translate(-296.32 -144)"/><path class="cls-1" d="M687.39,377.42a78.43,78.43,0,0,1,9.18-5.39c3-1.57,5.87-2.9,8.71-4.16,5.67-2.52,11.14-4.6,16.36-6.57,2.62-1,5.14-2,7.62-2.83s4.93-1.58,7.36-2.19,4.86-1.07,7.38-1.67c.67-.16,1.26-.32,2-.52a20.25,20.25,0,0,0,2-.74,15.06,15.06,0,0,0,4.5-3h1a10.5,10.5,0,0,1,2.61,6.27,17.09,17.09,0,0,1-.84,6.91,26.85,26.85,0,0,1-6.9,10.83,35.38,35.38,0,0,1-9.52,6.66,52.24,52.24,0,0,1-10.34,3.54,58.45,58.45,0,0,1-21,1.08,52.81,52.81,0,0,1-10.28-2.38,40.57,40.57,0,0,1-9.87-4.82Z" transform="translate(-296.32 -144)"/></svg>